# xmcd
#
# Track frame offsets: 
#        150
#        13745
#        30295
#
# Disc length: 668 seconds
#
# Revision: 4
# Processed by: cddbd v1.5.2PL0 Copyright (c) Steve Scherf et al.
# Submitted via: ExactAudioCopy v0.99pb4
#
DISCID=15029a03
DTITLE=A Perfect Circle - The Hollow (Single)
DYEAR=2000
DGENRE=Alternative
TTITLE0=The Hollow
TTITLE1=The Hollow (Constantly Consuming Remix)
TTITLE2=Judith (Remix)
EXTD=
EXTT0=
EXTT1=
EXTT2=
PLAYORDER=
